<svg xmlns="http://www.w3.org/2000/svg" viewBox="0 0 24 24" fill="none" stroke="currentColor" stroke-width="2" stroke-linecap="round" stroke-linejoin="round">
  <!-- Croissant shape -->
  <path d="M4 12c0-3 2-5 5-7 1-1 3-1 4 0 1 1 1 3 0 4-2 3-4 5-4 8 0 1-1 2-2 2s-2-1-2-2c0-2-1-4-1-5z"/>
  <path d="M20 12c0-3-2-5-5-7-1-1-3-1-4 0-1 1-1 3 0 4 2 3 4 5 4 8 0 1 1 2 2 2s2-1 2-2c0-2 1-4 1-5z"/>
  <!-- Layers/texture -->
  <path d="M8 10c1 1 2 2 4 2s3-1 4-2"/>
  <path d="M8 14c1 1 2 1.5 4 1.5s3-0.5 4-1.5"/>
</svg>
